/* XPM */
static char *result[] = {
/* columns rows colors chars-per-pixel */
"24 24 5 1 ",
"  c #5C4E92",
". c #766DAA",
"X c #DDD5DE",
"o c #F3F2C0",
"O c None",
/* pixels */
"OOOOOOOOOOOOOOOOOOOOOOOO",
"OOOOOOOOOOOOOOOOOOOOOOOO",
"OOOOOOOOOOOOOOOOOOOOOOOO",
"OOOOOOOOOOOOOOOOOOOOOOOO",
"OOOOOO    OOOOO   OOOOOO",
"OOOOO ooo      ooo OOOOO",
"OOOOO ooooXXXXoooo OOOOO",
"OOOOO oooooooooooo OOOOO",
"OOOOOO oooooooooo OOOOOO",
"OOOOO  oooooooooo  OOOOO",
"OOOOOO oooooooooo OOOOOO",
"OOOOO  oooooooooo  OOOOO",
"OOOOOO oooooooooo OOOOOO",
"OOOOOOO  ......  OOOOOOO",
"OOOOOOOO ...... OOOOOOOO",
"OOOOOOO Xoo  ooX OOOOOOO",
"OOOOOOO Xo oo oX OOOOOOO",
"OOOOOOOO oooooo OOOOOOOO",
"OOOOOOOO XX  XX OOOOOOOO",
"OOOOOOOOO  OO  OOOOOOOOO",
"OOOOOOOOOOOOOOOOOOOOOOOO",
"OOOOOOOOOOOOOOOOOOOOOOOO",
"OOOOOOOOOOOOOOOOOOOOOOOO",
"OOOOOOOOOOOOOOOOOOOOOOOO"
};
