/* XPM */
static char *result[] = {
/* columns rows colors chars-per-pixel */
"24 24 5 1 ",
"  c #5C4E92",
". c #766DAA",
"X c #DDD5DE",
"o c #F3F2C0",
"O c None",
/* pixels */
"OOOOOOOOOOOOOOOOOOOOOOOO",
"OOOOOOOOOOOOOOOOOOOOOOOO",
"OOOOOOOOOOOOOOOOOOOOOOOO",
"OOOOOOOOOOOOOOOOOOOOOOOO",
"OOOOOOO   OOOO   OOOOOOO",
"OOOOOO ooo OO ooo OOOOOO",
"OOOOOO ooo    ooo OOOOOO",
"OOOOOO oooXXXXooo OOOOOO",
"OOOOOO oooooooooo OOOOOO",
"OOOOOO oooooooooo OOOOOO",
"OOOOO  oooooooooo  OOOOO",
"OOOOOO oooooooooo OOOOOO",
"OOOOO  oooooooooo  OOOOO",
"OOOOOO oooooooooo OOOOOO",
"OOOOOOO  ......  OOOOOOO",
"OOOOOO Xo..  ..oX OOOOOO",
"OOOOOO Xoo oo ooX OOOOOO",
"OOOOOOO  oooooo  OOOOOOO",
"OOOOOOOO XX  XX OOOOOOOO",
"OOOOOOOOO  OO  OOOOOOOOO",
"OOOOOOOOOOOOOOOOOOOOOOOO",
"OOOOOOOOOOOOOOOOOOOOOOOO",
"OOOOOOOOOOOOOOOOOOOOOOOO",
"OOOOOOOOOOOOOOOOOOOOOOOO"
};
