/* XPM */
static char *result[] = {
/* columns rows colors chars-per-pixel */
"24 24 7 1 ",
"  c #754C60",
". c #90625D",
"X c #D99A9A",
"o c #DCB98A",
"O c #E8B5AC",
"+ c #F3E5C2",
"@ c None",
/* pixels */
"@@@@@@@@@@@@@@@@@@@@@@@@",
"@@@@@@@@@@@@@@@@@@@@@@@@",
"@@@@@@@@@@@@@@@@@@@@@@@@",
"@@@@@@@@@@@@..@@..@@@@@@",
"@@@@@@@@@@@.+.@@.+.@@@@@",
"@@@@@@@@..@.+....+.@@..@",
"@@@@@@@.++..ooooo++..++.",
"@@@.....++++ooooo+++.++.",
"@..ooo+.OO+ooooo++++.OO.",
".ooooo++...oo  +++  +..@",
".oooo++++++++++++++++.@@",
".oo++++++++++++OOOOOO.@@",
".++++++oo++.++OOXOOXO.@@",
".+++++oooo++.+OOOOOOO.@@",
".++++++oo++++........@@@",
".oooo+++++++ooo.@@@@@@@@",
".oooooooooooooo.@@@@@@@@",
"@.oo....oo...oo.@@@@@@@@",
"@.oo.@@.oo.@.oo.@@@@@@@@",
"@@..@@@@..@@@..@@@@@@@@@",
"@@@@@@@@@@@@@@@@@@@@@@@@",
"@@@@@@@@@@@@@@@@@@@@@@@@",
"@@@@@@@@@@@@@@@@@@@@@@@@",
"@@@@@@@@@@@@@@@@@@@@@@@@"
};
