/* XPM */
static char *result[] = {
/* columns rows colors chars-per-pixel */
"24 24 8 1 ",
"  c #754C60",
". c #90625D",
"X c #BE9F8A",
"o c #D99A9A",
"O c #DCB98A",
"+ c #E8B5AC",
"@ c #F3E5C2",
"# c None",
/* pixels */
"########################",
"########################",
"########################",
"########################",
"############..##..######",
"###########.@.##.@.#####",
"..######..#.@....@.##..#",
".O.####.@@..OOOOO@@..@@.",
"#.O.....@@@@OOOOO@@@.@@.",
"#..OOO@.++@OOO O@@ @.++.",
".OOOOO@@...OOO @@@ @@..#",
".OOOO@@@@@@@@@@@@@@@@.##",
".OO@@@@@@@@@@@@++++++.##",
".@@@@@@OO@@.@@++o++o+.##",
".@@@@@OOOO@@.@+++++++.##",
".@@@@@@OO@@@@........###",
".OOOO@@@@@@@OOOO.#######",
".OOOOOOOOOOOOOOO.#######",
".X..OOO...OOO...X.######",
".XX..OO.#.OO.#.XX.######",
"#..##..###..###..#######",
"########################",
"########################",
"########################"
};
