/* XPM */
static char *result[] = {
/* columns rows colors chars-per-pixel */
"24 24 9 1 ",
"  c #90625D",
". c #AA7959",
"X c #BD757E",
"o c #C49A6C",
"O c #CC888D",
"+ c #D99A9A",
"@ c #DED9AB",
"# c #F0EFB9",
"$ c None",
/* pixels */
"$$$$$$$$$$$$$$$$$$$$$$$$",
"$$$$$$$  $$$$$$  $$$$$$$",
"$$$$$$ oo      oo $$$$$$",
"$$$$$ o..oooooo..o $$$$$",
"$$$$$ ............ $$$$$",
"$$$$$ ............ $$$$$",
"$$$$$ ..@@@@@@@@.. $$$$$",
"$$$$$ .@########@. $$$$$",
"$$$$$ o@########@o $$$$$",
"$$$$$ oXOOOOOOOOXo $$$$$",
"$$$$$ XO++++++++OX $$$$$",
"$$$$$ XO++++++++OX $$$$$",
"$$$$$ XO++++++++OX $$$$$",
"$$$$$ XO++++++++OX $$$$$",
"$$$$$ XO++++++++OX $$$$$",
"$$$$$ XO++++++++OX $$$$$",
"$$$$$ XO++++++++OX $$$$$",
"$$$$$ Xoo++++++ooX $$$$$",
"$$$$$ o..oooooo..o $$$$$",
"$$$$$ ............ $$$$$",
"$$$$$ ............ $$$$$",
"$$$$$ ..        .. $$$$$",
"$$$$$$  $$$$$$$$  $$$$$$",
"$$$$$$$$$$$$$$$$$$$$$$$$"
};
