/* XPM */
static char *_704fab88a324e3cff89f0b83848e5d4grOmIT0GCnmpLGRq[] = {
/* columns rows colors chars-per-pixel */
"64 64 220 2 ",
"   c #EDEBCB",
".  c #ECEAC9",
"X  c #E8E5BD",
"o  c #E7E4BB",
"O  c #E7E3BA",
"+  c #E3DCB1",
"@  c #E3DBB0",
"#  c #EDEBCC",
"$  c #ECEBCA",
"%  c #E4DCB1",
"&  c #ECE9C8",
"*  c #EBE8C7",
"=  c #EBE8C6",
"-  c #EAE7C5",
";  c #EAE6C3",
":  c #E6E1B8",
">  c #E5E0B7",
",  c #E5E1B7",
"<  c #E5E2B8",
"1  c #E6E2B8",
"2  c #E5DFB6",
"3  c #E2D9AE",
"4  c #E1D8AD",
"5  c #E4DDB3",
"6  c #E3DCB2",
"7  c #DDD6A9",
"8  c #DCD5A7",
"9  c #DCD5A8",
"0  c #DCD3A6",
"q  c #D8CA9D",
"w  c #D8C89C",
"e  c #D7C89A",
"r  c #D8C99C",
"t  c #DBD3A4",
"y  c #DCD4A6",
"u  c #DBD4A6",
"i  c #D7C799",
"p  c #E2DAAE",
"a  c #DAD2A3",
"s  c #D9D0A1",
"d  c #D5C597",
"f  c #D5C495",
"g  c #D5C496",
"h  c #E3DBB1",
"j  c #E2DAAF",
"k  c #DBD3A5",
"l  c #DAD1A2",
"z  c #D6C698",
"x  c #D9D1A2",
"c  c #E0D6A9",
"v  c #DFD5A8",
"b  c #D9CF9F",
"n  c #D8CE9D",
"m  c #D7CC9C",
"M  c #D4C393",
"N  c #D3C192",
"B  c #D3C292",
"V  c #D4C394",
"C  c #D5C395",
"Z  c #D8CE9E",
"A  c #D9CFA0",
"S  c #D8CE9F",
"D  c #D7CD9C",
"F  c #C9B378",
"G  c #C8B277",
"H  c #C8B175",
"J  c #C8B075",
"K  c #C9B278",
"L  c #D0BA89",
"P  c #D2BB8C",
"I  c #D1BB8B",
"U  c #C9B379",
"Y  c #D1BC8A",
"T  c #D2BD8D",
"R  c #C6AE71",
"E  c #C7AF74",
"W  c #D0B987",
"Q  c #D1BA8A",
"!  c #C6AE70",
"~  c #C7AF73",
"^  c #D0B887",
"/  c #C6AD70",
"(  c #CAB479",
")  c #C6AF72",
"_  c #C7B074",
"`  c #CAB47B",
"'  c #D4BF90",
"]  c #D2BE8D",
"[  c #CBB57C",
"{  c #C9B479",
"}  c #C8B074",
"|  c #C9B177",
" . c #D2BD8C",
".. c #E3DEB3",
"X. c #E0D8AB",
"o. c #CFB785",
"O. c #D2BC8B",
"+. c #DED3A5",
"@. c #E0D7AA",
"#. c #E4DEB4",
"$. c #E4DFB5",
"%. c #E5DFB5",
"&. c #E1DAAE",
"*. c #E2DBB0",
"=. c #E5E0B6",
"-. c #E7E4BC",
";. c #E8E5BC",
":. c #D3BE8F",
">. c #E1D8AC",
",. c #E4DCB2",
"<. c #E7E5BC",
"1. c #D3BE8E",
"2. c #E1D7AC",
"3. c #D3BF8F",
"4. c #D1B989",
"5. c #E6E2B9",
"6. c #E2DCB0",
"7. c #C8B177",
"8. c #D1BB8A",
"9. c #D4C091",
"0. c #E0D5A9",
"q. c #E2D9AD",
"w. c #D5C293",
"e. c #D3BD8E",
"r. c #E6E3BA",
"t. c #D4C192",
"y. c #D2BC8D",
"u. c #D1BC8B",
"i. c #D8CD9D",
"p. c #D9CE9F",
"a. c #D7C79A",
"s. c #D9CB9E",
"d. c #D6C395",
"f. c #DFD4A8",
"g. c #DBD4A5",
"h. c #D4C191",
"j. c #D8CD9E",
"k. c #D4C395",
"l. c #D5C596",
"z. c #DAD1A3",
"x. c #DBD2A3",
"c. c #D6C699",
"v. c #E1D7AB",
"b. c #E1D9AD",
"n. c #DAD0A1",
"m. c #E2DBB1",
"M. c #E0D6AB",
"N. c #E0D5AA",
"B. c #E4E0B6",
"V. c #E0D7AB",
"C. c #E2DCB1",
"Z. c #D6C799",
"A. c #D6C597",
"S. c #CCB87E",
"D. c #D8CF9E",
"F. c #C8B276",
"G. c #DAD3A4",
"H. c #D0B988",
"J. c #CFB885",
"K. c #CAB47A",
"L. c #CBB57B",
"P. c #D9D0A2",
"I. c #D3BF90",
"U. c #D6CA99",
"Y. c #DDD1A3",
"T. c #E3DDB1",
"R. c #D2BE8E",
"E. c #D9D0A0",
"W. c #DAD2A2",
"Q. c #E3DDB3",
"!. c #CCB87F",
"~. c #DFD6A8",
"^. c #D4C294",
"/. c #D5C192",
"(. c #E3DEB4",
"). c #D6C394",
"_. c #CAB67C",
"`. c #DED3A6",
"'. c #DCD3A5",
"]. c #DCD4A5",
"[. c #DDD5A8",
"{. c #DAD2A4",
"}. c #D2BC8C",
"|. c #D7CC9B",
" X c #D6CA98",
".X c #D0BA88",
"XX c #DBD2A4",
"oX c #E0D6AA",
"OX c #E2DDB1",
"+X c #CDB87F",
"@X c #C6AE72",
"#X c #D3C091",
"$X c #CBB77D",
"%X c #CAB379",
"&X c #D6C697",
"*X c #D4C293",
"=X c #CBB77E",
"-X c #DED4A7",
";X c #E4DFB4",
":X c #D7C89B",
">X c #E3DDB2",
",X c #D5C394",
"<X c #D9CA9D",
"1X c #D7C99B",
"2X c #CBB67C",
"3X c #DDD2A3",
"4X c #CAB57B",
"5X c #D6CB99",
"6X c #D2C08F",
"7X c #DFD5A9",
"8X c #D5C497",
"9X c #D3C191",
"0X c #D4C090",
"qX c #D8CA9C",
"wX c #D5C494",
"eX c #DED4A6",
"rX c #C8B176",
"tX c #D5C294",
"yX c #D2BD8E",
"uX c white",
/* pixels */
"                                      . X o o X .     . X o o o o o o o o o o o o o o o o o o o o o o o o o o o o o o O + @ @ @ ",
"                                      . X o o X .     . X o o o o o o o o o o o o o o o o o o o o o o o o o o o o o o O + @ @ @ ",
"                                    # $ X o o X $ # # $ X o o o o o o o o o o o o o o o o o o o o o o o o o o o o o o O % @ @ @ ",
"& & & & * = = = = = = = - - - - - - - ; : > > : ; - - ; : > > , < 1 1 1 1 1 1 < , > > , < 1 1 1 1 1 1 1 1 1 1 < , > > 2 3 4 4 4 ",
"5 5 5 6 7 8 9 9 9 9 9 0 q w w w w w w w e e e e w w w w e e e r t y u u u u y t r e e r t y u u u u u u u u y t r e e e i i i i ",
"@ @ @ p t a a a a a a s d f g g g g g g g g g g g g g g g g g d s a a a a a a s d g g d s a a a a a a a a a a s d g g g g g g g ",
"@ @ h j k a a a a a a l z g g g g g g g g g g g g g g g g g g z l a a a a a a x z g g z l a a a a a a a a a a l z g g g g g g g ",
"c c c v b n n n n n n m M N N B V C C C C C C V B N N N N N N M m n n Z A A A S g C C g D n n n n n n n n n n m M N N N N N N N ",
"F F F F G G G G G G G G H J J K L P I I I I P L K J H H H H J H G G G U Y T T T P I P L U G G G G G G G G G G G H J H H H H H H ",
"R R R R R R R R R R R R R R R E W Q Q Q Q Q Q W E R R R R R R R R R ! ~ ^ Q Q Q Q Q Q W ~ ! R R R R R R R R R R R R R R R R R R ",
"! ! ! ! R R R R R R R R R R ! ~ ^ Q Q Q Q Q Q ^ ~ / ! ! ! ! ! ! R R R E ^ Q Q Q Q Q Q ^ ~ / ! ! R R R R R R R R R R R R ! ! ! ! ",
"( ( ( F ) R R R E E E _ F F F ` T ' ' ' ' ' ' ] [ ( ( ( ( ( ( { } E E |  .' ' ' ' ' ' ] [ ( ( { } E E E R R R R E E E } { ( ( ( ",
"......X.F ! R E o.W ^ O.+.c c @.#.2 $.$.$.$.%.$...............&. .^ ^  .*.=.$.$.$.$.%.$.......&. .^ W o.E R R E o.W ^  .&.......",
"-.-.;...( ! R E W Q Q :.>.+ @ ,.O o o o o o o o -.-.-.-.-.-.<.=.' Q Q ' =.<.o o o o o o -.-.<.=.' Q Q W E R R E W Q Q ' =.<.-.-.",
"o o <...( / R E ^ Q Q 1.2.h @ % O o o o o o o o o o o o o o <.2 3.4.4.3.%.o o o o o o o o o -.2 3.4.Q ^ E R R E ^ Q 4.3.2 -.o o ",
"1 1 5.6.[ ~ E 7.8.T T 9.0.q.4 3 , 1 1 < , > > , o o o O =.$.2 h w.e.e.w.$.O O r.1 1 1 1 1 1 5...t.y.T 8.7.E E 7.8.T y.t...5.1 1 ",
"u u y l u.^ ^ 8.i.A A p.e i i e t y y t r e a.s., o o =.d.:.3.w.f.2.2.>.h + % @ 8 u u u u u y g.s A A i.8.^ ^ 8.i.A A s g.y u u ",
"a a a A T Q Q T A a a x d g g d s a a s d g C a.> o o $.:.4.4.e.2.+ @ @ @ @ @ p t a a a a a a a a a a A T Q Q T A a a a a a a a ",
"a a a A y.4.4.y.A a a x z g g z s a a s d g g e , <.<.=.' Q Q :.2.@ @ @ @ @ @ j t a a a a a a a a a a A T Q Q T A a a a a a a a ",
"a a a s t.3.3.h.j.A A S g C k.l.z.k k x.e i c.r 6 2 =.*. .^ ^  .v.@ @ @ j j j b.y t t t a a a a t t k n.Y ^ ^ u.l y u g.a a a a ",
"a a a g...2 2 m.h.y.T T P I I 3.M.j j p b.4 q.N.w.3.'  .| E ~ ` c @ @ j y t t y b.j j b.t a a t b.j j v ` ~ ~ [ 6.5.1 B.g.a a a ",
"a a a y 5.-.<.2 3.4.Q Q Q Q Q 1.2.@ @ @ @ @ h 2.e.4.Q ^ E R ! F c @ @ j t a a t j @ @ j t a a t j @ h c F ! / ( ..<.o 1 u a a a ",
"a a a u 1 o -.2 3.4.Q Q Q Q Q 1.2.+ @ @ @ @ + >.:.Q Q W E R R F c + @ j k a a t j @ @ j k a a k j @ + c F R ! ( ..;.<.5.y a a a ",
"a a a g.B.1 5...t.y.T y.Q Q Q e.f.2.2.v.c c c +.O.^ W o.E R R F +.>.2.V.t a a t b.j j b.z.s s z.M.2.>.+.F R ! F X.....C.k a a a ",
"a a a a g.u y g.s A A j.y.Q Q Q e.1.:. .` F F F _ E E E R R R _ O.:.1.9.s a a a t t k z.Z.A.z l.3.1.:.O._ R R ) F ( ( S.D.a a a ",
"a a a a a a a a a a a A T Q Q Q Q Q Q ^ ~ ! R R R R R R R R R E ^ Q Q T A a a a a a a s A.g g k.I Q Q ^ E R R R ! ! / F.n a a a ",
"a a a a a a a a a a a A y.4.Q Q Q Q Q W ~ ! R ! ! ! ! ! ! ! / ~ W Q Q T A a a a a a a x d g g V I Q Q ^ ~ / ! ! R R ! G Z G.a a ",
"a a a a a a a a a a a s t.3.' :.H.W W J.K.F F F ( ( ( ( ( ( ( L.H.Q Q T S x P.s A A A p.e i i z 9.I.' ] [ ( ( { } E E U U.Z n n ",
"a a a a a a a a a a a g...2 =.&.L.~ ~ K.Y.c c @.T.............&.:.Q Q P g z z l.R.T T 9.0.q.4 3 #.%.%.$.......&. .^ W J.U G G G ",
"a a a a a a a a a a a y 5.-.<...( / ! F c + @ ,.O -.-.-.-.-.<.=.' Q Q I C g g C I Q Q 1.2.h @ % O o o o -.-.<.=.' Q Q W E ! R R ",
"a a a a a a a a a a a y 5.-.<...( / / F c h @ % O o o o o o -.2 3.4.Q I C g g C I Q 4.1.2.@ @ % O o o o o o -.2 3.4.Q ^ E R R R ",
"A A A E.a a a W.Z n n E.Q.2 =.&.!.F F S.~.j p *., 1 1 1 1 1 5...w.e.1.:.^.C C ^.:.1.1./.V.j p *.1 O O r.1 1 5.(.).3.'  .} R R R ",
"T T T 3.E.a a Z _.F.G K.T ' 3./.`.c c ~.'.t t k u u u u u u u y V.2.2.f.:.I I :.f.2.2.V.].t t y *.% % @ 8 u u [.(.2 =.&.{ ! R R ",
"Q Q Q T A a a n F./ ! ~ ^ Q 4.1.>.+ h j t a a a a a a a a a a t j @ + 2.1.Q Q 1.2.+ @ j t a a t p @ @ p t a a u 5.-.<...( ! R R ",
"Q Q Q T E.{.G.Z G R R E W Q Q 1.2.@ @ j t a a a a a a a a a a k j h + >.:.Q Q :.2.@ @ j k a a k j @ @ j t a a u 1 o <...( / R R ",
"Q Q Q }.|.n Z  XF.R R E .XP I 3.M.j j b.t a a a g.u u g.a a a XXv c c +.O.^ ^ }.oXj j b.z.s s z.b.j j b.t a a g.B.1 5.OX+XF F F ",
"Q Q Q H.U G G F.@XR R J #XC k.l.z.k t t a a a g.B.1 1 B.g.a a Z $XF F F _ E ~ %Xb k k z.Z.A.A.Z.z.k t t a a a a g.u u y ~.c c c ",
"Q Q Q W E ! R R R R R H B g g z s a a a a a a u 1 o o 1 u a a n F./ R R R R ! G n a a s A.g g A.s a a a a a a a a a a t j h @ @ ",
"Q Q Q ^ ~ ! R R R R / J N g g &Xs a a a a a a u 1 o o 1 y a {.n F./ ! ! ! ! / F.n {.a x d g g d s a a a a a a a a a a k j @ @ @ ",
"T T T Y ` F F F F F F [ *Xg g z XXy u g.a a a g.B.1 1 B.z.A A m =X( ( ( ( ( ( =Xm A A p.e i i e x.k t t a a a a a a a t V.2.2.2.",
"A A A n.v c c c c c c -Xz g g a.;X5.1 B.g.a a a g.u y z.I.T y.h.&.............&.h.y.T 9.0.q.4 b.p j j b.t a a a a a a s 9.1.1.1.",
"a a a k j h @ @ @ @ + q.i g g e > o o 1 u a a a a a a A T Q 4.3.=.<.-.-.-.-.<.=.3.4.Q 1.2.h @ @ @ @ @ j t a a a a a a A T Q Q Q ",
"a a a t j @ @ @ @ @ @ 4 i g g :X, <.-.5.y a a a a a a A y.4.4.3.2 -.o o o o <.2 3.4.4.e.2.+ @ @ @ @ h j t a a a a a {.E.T Q Q Q ",
"a a a t b.j j j j j j V.f N N l.+ 2 2 Q.E.n n Z A A A j.h.3.3.).(.5.1 < , > , >X,X3.3.w.f.2.2.v.c c c ~.'.t k XXZ n n |.}.Q Q Q ",
"a a a a t t t t t t k b ` J J K T ' ' T K.G G U Y T y.h.m.2 2 (.[.u y t r e a.<X>X2 2 h w.e.:. .` F F S.~.j j v $XF.G U H.Q Q Q ",
"a a a a a a a a a a a n F.! R E ^ Q Q ^ ~ ! ! ~ ^ Q 4.3.2 <.-.5.u a a s d g C a., <.<.2 3.4.Q ^ ~ ! / F c h h c F / ! E W Q Q Q ",
"a a a a a a a a a a {.n F./ / ~ ^ Q Q ^ ~ ! ! E W Q Q ' 2 -.o 1 y a a P.&Xg g e > o -.2 3.4.Q ^ ~ ! / F c + + c F / R E ^ Q Q Q ",
"A A A E.a a a a E.A A m =X( ( [ ] ' ' T K.G G U J.W ^ T Q.5.1 B.XXs P.A Z.&Xd 1X$.5.5...t.y.T Y U G F.2X3Xc c 3X4XJ J K O.:.1.1.",
"T T T 3.E.a a E.3.T y.h.&.......$.%.2 Q.E.n Z U.U E ~ K.E.y y XXZ.A.&XZ.A P.s l g.u y g.s A A A Z n Z 5X2XF F 4X6XB N f 7X2.2.2.",
"Q Q Q T A a a A T Q 4.3.=.<.-.-.o o -.5.y a G.Z G ! ! G n a a s A.g g &XP.a a a a a a a a a a a a a G.Z F./ / J B 8Xg i q.@ @ @ ",
"Q Q Q T A a a A y.4.4.3.%.o o o o o o 1 y a {.n F./ / F.n a a P.A.g g A.P.a a a a a a a a a a a a a {.n F./ ! J 9Xg g c.b.@ @ @ ",
"1.1.1.0Xj.A A j.h.3.3.).$.O O O O O O , x.A A m =X( ( S.D.a a x Z.A.A.Z.x a a a x P.s l t k k t s A A |.4XF.F.4Xl.e e qXM.b.4 4 ",
"2.2.2.f.0XT y.h.m.2 %.$.,.+ + + + + ,.4 9.y.y.h.&.....C.k a a a x P.P.x a a a x Z.A.d e >.j j V.9.T T 3.|.n n E.(.> , Q.qXc.i i ",
"@ @ + 2.1.Q 4.3.2 <.o O + @ @ @ @ @ @ 2.1.Q 4.3.=.<.<.5.y a a a a a a a a a a P.A.g g i 4 @ @ 2.1.Q Q T A {.a y 5.o <., e g g g ",
"@ @ @ 2.1.Q Q ' %.o o O + @ @ @ @ @ @ 2.:.Q Q ' =.<.-.5.u a a a a a a a a a a l z g g i 3 + + >.:.Q Q T A a a y 1 o o > e g g g ",
"j j j oX1.Q Q 3.#.O O 5.+ @ @ @ q.4 q.7XO.^ ^  .*.=.2 (.[.u u u k t k t s A A S M N N wXeXc c +.O.^ ^ 8.i.A A z.B.1 5.$.1Xd &X&X",
"t t k n.T Q Q 1.4 ,.+ + @ @ @ q.r c.i f K E E |  .' 3.).(.5.1 , *.p j V.9.T T 8.K J J rXF F F F _ E E 7.8.T T I.z.y u g.l s P.P.",
"a a a A T Q Q 1.2.@ @ @ @ @ @ 4 c.g g N J R R E ^ Q 4.3.2 -.o O % @ @ 2.1.Q Q ^ E R R R R R R R R R R E ^ Q Q T A a a a a a a a ",
"a a a A T Q Q 1.2.+ @ @ @ @ h q.i g g B J / ! ~ ^ Q 4.3.2 <.o O ,.@ + 2.1.4.Q ^ ~ / ! ! R R R R R R R E W Q Q T A a a a a a a a ",
"a a a E.3.T T 0Xf.2.2.2.2.2.2.0.A.V C 9XL.F F ` T ' 3.tX+ 2 %.#.4 2.2.f./.1.1. .[ ( ( { } E E E J H J K L P I yXj.A A A A A A A ",
"a a a a E.A A j.0X1.1.1.1.1.1.e.P I I :.+.c c @.#.2 2 + tX3.' 3.1.1.1./.f.2.2.>.>X....&. .^ W .X#XB N B V C C ^.yXT T T T T T T ",
"a a a a a a a A T Q Q Q Q Q Q Q Q Q Q 1.>.+ @ ,.O o <.2 3.4.Q Q Q Q 4.1.2.+ @ ,.O -.<.=.' Q Q P C g g g g g g C I Q Q Q Q Q Q Q ",
"a a a a a a a A T Q Q Q Q Q Q Q Q Q Q 1.2.@ @ + O o o $.' Q Q Q Q Q Q 1.2.@ @ + O o o $.' Q Q I C g g g g g g C I Q Q Q Q Q Q Q ",
"a a a a a a a A T Q Q Q Q Q Q Q Q Q Q 1.2.@ @ + O o o $.' Q Q Q Q Q Q 1.2.@ @ + O o o $.' Q Q I C g g g g g g C I Q Q Q Q Q Q Q "
};
