/* XPM */
static char *_f8d40e800c14a5a8be0bbfd1e371241E2iLgW27wNEMmC95[] = {
/* columns rows colors chars-per-pixel */
"64 48 256 2 ",
"   c black",
".  c #010101",
"X  c #020202",
"o  c gray1",
"O  c #040404",
"+  c gray2",
"@  c #060606",
"#  c #070707",
"$  c gray3",
"%  c #090909",
"&  c gray4",
"*  c #0B0B0B",
"=  c #0C0C0C",
"-  c gray5",
";  c #0E0E0E",
":  c gray6",
">  c #101010",
",  c #111111",
"<  c gray7",
"1  c #131313",
"2  c gray8",
"3  c #151515",
"4  c #161616",
"5  c gray9",
"6  c #181818",
"7  c #191919",
"8  c gray10",
"9  c #1B1B1B",
"0  c gray11",
"q  c #1D1D1D",
"w  c #1E1E1E",
"e  c gray12",
"r  c #202020",
"t  c gray13",
"y  c #222222",
"u  c #232323",
"i  c gray14",
"p  c #252525",
"a  c gray15",
"s  c #272727",
"d  c #282828",
"f  c gray16",
"g  c #2A2A2A",
"h  c gray17",
"j  c #2C2C2C",
"k  c #2D2D2D",
"l  c gray18",
"z  c #2F2F2F",
"x  c gray19",
"c  c #313131",
"v  c #323232",
"b  c gray20",
"n  c #343434",
"m  c #353535",
"M  c gray21",
"N  c #373737",
"B  c gray22",
"V  c #393939",
"C  c #3A3A3A",
"Z  c gray23",
"A  c #3C3C3C",
"S  c gray24",
"D  c #3E3E3E",
"F  c #3F3F3F",
"G  c gray25",
"H  c #414141",
"J  c gray26",
"K  c #434343",
"L  c #444444",
"P  c gray27",
"I  c #464646",
"U  c gray28",
"Y  c #484848",
"T  c #494949",
"R  c gray29",
"E  c #4B4B4B",
"W  c #4C4C4C",
"Q  c gray30",
"!  c #4E4E4E",
"~  c gray31",
"^  c #505050",
"/  c #515151",
"(  c gray32",
")  c #535353",
"_  c gray33",
"`  c #555555",
"'  c #565656",
"]  c gray34",
"[  c #585858",
"{  c gray35",
"}  c #5A5A5A",
"|  c #5B5B5B",
" . c gray36",
".. c #5D5D5D",
"X. c gray37",
"o. c #5F5F5F",
"O. c #606060",
"+. c gray38",
"@. c #626262",
"#. c gray39",
"$. c #646464",
"%. c #656565",
"&. c gray40",
"*. c #676767",
"=. c #686868",
"-. c DimGray",
";. c #6A6A6A",
":. c gray42",
">. c #6C6C6C",
",. c #6D6D6D",
"<. c gray43",
"1. c #6F6F6F",
"2. c gray44",
"3. c #717171",
"4. c #727272",
"5. c gray45",
"6. c #747474",
"7. c gray46",
"8. c #767676",
"9. c #777777",
"0. c gray47",
"q. c #797979",
"w. c gray48",
"e. c #7B7B7B",
"r. c #7C7C7C",
"t. c gray49",
"y. c #7E7E7E",
"u. c gray50",
"i. c #808080",
"p. c #818181",
"a. c gray51",
"s. c #838383",
"d. c #848484",
"f. c gray52",
"g. c #868686",
"h. c gray53",
"j. c #888888",
"k. c #898989",
"l. c gray54",
"z. c #8B8B8B",
"x. c gray55",
"c. c #8D8D8D",
"v. c #8E8E8E",
"b. c gray56",
"n. c #909090",
"m. c gray57",
"M. c #929292",
"N. c #939393",
"B. c gray58",
"V. c #959595",
"C. c gray59",
"Z. c #979797",
"A. c #989898",
"S. c gray60",
"D. c #9A9A9A",
"F. c #9B9B9B",
"G. c gray61",
"H. c #9D9D9D",
"J. c gray62",
"K. c #9F9F9F",
"L. c #A0A0A0",
"P. c gray63",
"I. c #A2A2A2",
"U. c gray64",
"Y. c #A4A4A4",
"T. c #A5A5A5",
"R. c gray65",
"E. c #A7A7A7",
"W. c gray66",
"Q. c #A9A9A9",
"!. c #AAAAAA",
"~. c gray67",
"^. c #ACACAC",
"/. c gray68",
"(. c #AEAEAE",
"). c #AFAFAF",
"_. c gray69",
"`. c #B1B1B1",
"'. c #B2B2B2",
"]. c gray70",
"[. c #B4B4B4",
"{. c gray71",
"}. c #B6B6B6",
"|. c #B7B7B7",
" X c gray72",
".X c #B9B9B9",
"XX c gray73",
"oX c #BBBBBB",
"OX c #BCBCBC",
"+X c gray74",
"@X c gray",
"#X c gray75",
"$X c #C0C0C0",
"%X c #C1C1C1",
"&X c gray76",
"*X c #C3C3C3",
"=X c gray77",
"-X c #C5C5C5",
";X c #C6C6C6",
":X c gray78",
">X c #C8C8C8",
",X c gray79",
"<X c #CACACA",
"1X c #CBCBCB",
"2X c gray80",
"3X c #CDCDCD",
"4X c #CECECE",
"5X c gray81",
"6X c #D0D0D0",
"7X c gray82",
"8X c #D2D2D2",
"9X c LightGray",
"0X c gray83",
"qX c #D5D5D5",
"wX c gray84",
"eX c #D7D7D7",
"rX c #D8D8D8",
"tX c gray85",
"yX c #DADADA",
"uX c gray86",
"iX c gainsboro",
"pX c #DDDDDD",
"aX c gray87",
"sX c #DFDFDF",
"dX c gray88",
"fX c #E1E1E1",
"gX c #E2E2E2",
"hX c gray89",
"jX c #E4E4E4",
"kX c gray90",
"lX c #E6E6E6",
"zX c #E7E7E7",
"xX c gray91",
"cX c #E9E9E9",
"vX c #EAEAEA",
"bX c gray92",
"nX c #ECECEC",
"mX c gray93",
"MX c #EEEEEE",
"NX c #EFEFEF",
"BX c gray94",
"VX c #F1F1F1",
"CX c gray95",
"ZX c #F3F3F3",
"AX c #F4F4F4",
"SX c gray96",
"DX c #F6F6F6",
"FX c gray97",
"GX c #F8F8F8",
"HX c #F9F9F9",
"JX c gray98",
"KX c #FBFBFB",
"LX c gray99",
"PX c #FDFDFD",
"IX c #FEFEFE",
"UX c white",
/* pixels */
"v.l.H.{.[.^.).'.V.7.J.V.q.s.q.g.r.F.s.0.w.l.9.s.A.Y.N.p.E.pX>Xd.d.e.w.u.e.t.G.&Xv.a.p.q.>.9.s.8.n. Xe.a.k.i.e.r.8.7.i.9.5.8.,.4.",
"#.[ ..&.@.@.-.>.,.:.q.2.o.*.,.;.;.e.5.0.j.V.l.b.d.s.p.a.c.B.j.6.h.h.c.m.f.q.e.s.;.:.2.<.;.7.p.i.e.D.,.;.-.;.&.;.4.>.6.3.8.r.;.$.",
"j.t.q.7.>.2.q.0.B.L.V.S.V.j.A.U.R. X5X6X7X-X*X#X&XoXOX&XOX^.Q.'.Z.H.Q./.W.E.L.v.S.I.K.V.n.c.c.N.).;X}.!.I.^.E.Q.F.G.~.~.].@X`.).",
"'._._.R.V.Z.J.D.(.4X-X/.W.H.C.I.A.#XCXaX#XF.P.A.b.b.h.y.t.a.a.t.g.h.c.c.C.}.#XY.x.S.m.l.M.b.z.S.R.{.@X~.H.Y.S.V.(.[.@XT.v.k.u.f.",
"B.A.F.x.6.2.q.0.j.@XwXK.A.P.7.9.S.:XAX4XR.h.b.p.p.h.p.6.8.d.d.0.8.2.1.*.1.K.).l.e.i.6.4.d.h.d.M.a.l.B.y.6.3.&.+.Q.(.].N.r.t.w.s.",
"Y.L.K.n.7.<.w.p.e.n.;X,XwX2XG.-X7XkXkXoXK.c.g.8.0.e.u.u.e.8.9.w.a.t.a.9.9.I.~.0.S.n.p.u.j.l.k.n.z.m.v.p.z.r.r.t.9X,XOXV.i.i.2.:.",
"H.n.x.f.2.=.4.w.u.2.C.3XbX8X&XIXAXmX:X_.T.S.u.u.k.d.s.f.a.e.r.s.a.y.l.s.y.W.].y.h.q.7.w.r.d.v.m.k.B.p.f.Y.u.a.a.[._./.M.l.B.h.p.",
"/.D.A.H.n.g.l.b.q.e.6.x.R.W.{.&X9X:XF.P.T.G.y.V.V.l.q.2.9.d.d.t.u.0.a.e.7.T.XXz.c.e.i.g.t.a.M.M.J._.N.L.;Xj.p.q.m.D.Y.k.0.t.5.5.",
">.%.X.X.#.=.-.=.*.*.9.p.n.j.F.c.c.).;X].Z.x.Z.P.K.V.I.~.~.Y.H.!.v.V.j.8.h.].>X#X[.$X;X*X=X;X+X/. XOX X].'.Q.P.E.XX[.L.m.B.A.J.~.",
"@X|./.W.E.R.I.K._.*XaXOXT.D.!.Y.T.{.XX=X3XiX:X/./.(.].&XyXFXCX2XwX8X7X0XqX8X5X3XoX+XOX+X=X2X3X>XgXGXnX:XoX*X%X.XoX*X@X XoX@X:XrX",
").Q.U.J.H.F.Z.B.j._.jXT.w.u.C.T.s.L.L.T.z.C.i.8.h.i.q.S.{.wXgXP.&X X].}.).J.Z.F.I.S.V.F.T.Q.!.!.+XpXeX).P.~.!.L.R.~.K.x.d.a.c.I.",
"B.m.b.v.v.v.x.k.l.!.jXH.1.w.v.!.L.W.V.I.a.N.a.c.'.B.f..X#X+XuX).XXXX}._._.].`.^./.K.G.W./.P.V.M.!.-X3X#X].R.A.B.f.c.x.j.x.x.n.H.",
"B.N.m.b.v.x.k.h.b.B.=Xb.4.q.g.P.Y.I.c.I.r.d.s.Q.+XS.c.;X=X'.8X[.N.A.P.!.`.(.I.Z.S.l.g.M.N.u.>.*.Z. X6XtXdXiX5X<X XQ.k.6.9.r.a.v.",
"b.b.b.b.v.v.v.v.j.p.T.v.g.g.n.K./.).!.OXC.x.b..XS.j.d.^.|.OX2XT.U.D.U. XXXY.Z.D.G.x.f.l.l.t.5.5.f._.:X,XuXVXVXcXhX,XS.7.<.<.4.t.",
",.1.3.6.8.w.y.i.z.v.W.G.N.a.l.f.d.r.e.B.L.Y.C.N.S.C.C.J.^.&X-X!.T.L.Y.~.Y.V.V.P._.U.A.C.V.M.M.V.h.P.T.C.C.J.I.E.C.L.L.J.U.L.H.T.",
"m.M.N.V.Z.D.J.I.D.`.2X;XOXT.].I.S.).;X1X4X5X5X1X6X1X<XoXoX1X2X6X>XdXbXsX0XrXsXaX6X:XOX[.`.'.[.|.%X=X*X$X|.W.].0X6XiXtX3X:X:XwXMX",
"B.4.y.i.4.u.d.t.y.i.G._.W.~.{./.%X3XrX1XXXn.Z.V.k.f.a.p.i.a.x.Z.U.Y.I. X1XrXtX Xk.c.l.s.f.x.h.e.e.s.j.v.n.d.d.A.V.9XqX_.Q.T.^.6X",
"V.4.u.j.y.f.a.w.f.j.J.!.L.P.!.R.L.XXwX}.K.g.l.k.z.j.h.j.j.k.x.b.h.l.B.[.-X2XuX6Xc.B.V.b.v.C.Z.M.k.p.g.k.t.y.m.J.D.0X3XL.G.J.D.!.",
"U.9.9.e.5.q.e.u.b.n.D.F.b.m.F.F.g.Q.qXJ.f.g.l.M.x.l.g.d.f.h.h.g.s.g.C.%X5X-X=X[.u.j.l.a.y.a.g.f.y.h.a.r.y.t.d.S.P.qX5XE.R.T.b.d.",
"Z.5.9.i.u.h.v.K.9X7X2X%X{.].{.].W..XsXZ.8.9.4.a.p.i.w.5.5.w.r.q.6.6.i.(.2X6X3X).1.9.r.e.r.a.g.g.Q.$XC.4.h.f.p.^.Y.-XOXK.J.S.a.0.",
"h.6.a.j.i.6.=.4.a.l.x.z.b.B.B.M.f.h.'.k.p.h.d.F.d.l.j.p.d.c.c.d.n.x.t.f.N.Y.^.c.d.d.s.a.d.f.a.t.Z.W.F.l.C.J.H.Y.OX&X'.K.F.M.x.C.",
"&X{. X(.P.m.e.p.5.k.n.m.G.U.T.!.&X.XwX%X$X'.T.(.XX&X=X*X6XsXwX$X!. X[.].|.6XvXrX8X5X4X7XtXaXsXpXuX1XiXiX-XaXMX%X;X-X$X@X|.T.K./.",
"oX_.~.J.T.^.L.E.D.(.T.z.s.f.n.R.|._.+X}.$X).~.U.P.P.D.J.oXqX>XW.w.h.g.g.y.s.N.s.f.f.z.Z.Q.+X4XtXNX6X^.i.:.h.C.q.,.2.8.w.7.-.@.&.",
"W.P.G.m.L./.Z.N.D.).F.6.;.q.K.2XOX|.(.L.W.C.D.h.D.c.w.t.R.4X*XJ.p.e.3.e.t.i.n.d.y.e.q.0.r.j.D.Q.oX8XM.} r.p.O.&.2.1.;.#.#.,.8.w.",
"H.K.D.B./.U.Y.Z.T.E.A.f.u.s.A.[.E.n.y.r.0.1.1.9.4.t.w.d.b.2X$Xz.8.0.t.0.k.C.f.f.z.t.7.8.0.g./.wX-X>Xf.1.f.9.<.,.>.d.+.@.*.w.3.<.",
"D.S.S.M.W.K.Y.G.S./.U.d.0.u.k.M.h.i.i.h.h.t.7.6.y.w.7.7.L.6X5XK.t.7.6.>.r.x.p.d.d.e.q.t.w.q.x.R.8X3XM.q.d.y.p.s.v.U.t.6.;.1.:.5.",
"g.i.f.e.k.p.l.l.7.G.K.a.t.v.m.k.v.k.s.y.r.y.a.f.f.u.u.e. X>XOXm.i.0.u.r.f.c.e.8.8.4.0.f.k.g.b.J.|.).v.u.y.d.V.C.s.l.=.4.a.j.s.g.",
"Y.M.H.b.N.x.C.G._.8XqX#X#X2X=X].`.^.L.B.N.L._. X3X1X%XoXfXuX&X~._.~.oX+X$X<XOX{.'.^.(.oX*X;X4XyXuX8X1X&X]. X:X$XrXyXOX*X6X;X$X:X",
"~.z.F.c.c.k.M.F.B.Y.T.P.). X).T.*X5XiXhXbXZXDXAXjXkX;X+X.X XT.(.@X|.:X*X;XhXcXjX%X}.).`.].'.[.XXQ.P.).).I.`.&X+X:X6X[.D.k.<.j.(.",
"m.+.8.:.:.>.3.w.:.2.3.y.A.T.T.Q.L._.,XfXmXnXjXpXsXjX<X;X~./.L._.P.J.'.Q.~.6X7X XT.J.D.H.K.G.S.D.f.w.c.v.c.~.@X*X;X=XG.6.<.$.Z.:X",
"P.#.q.2.5.9.8.r.r.p.u.f.F.W.(.|.%X%X3XfXmXbXxXvXiXwX6X:X_.Q.Y.K.P.P.}./.`.tX,XM.r.w.r.s.j.k.k.k.C.h.m.l.b.^.{.#X3X$XN.,.t.w.I.oX",
"~.$.q.3.6.q.5.7.2.u.s.h.J.}.;X8XuX6X8XkXCXCXAXPXSXtXqX X(.P.(.D.V.v.D.c.S.6X%Xy.9.6.5.7.8.8.8.0.0.1.u.y.B. X@X3X_.}.L.a.M.d.P._.",
"B.w.*.6.w.q.a.q.g.r.z.x.B._.|.XX(._.).)..X>X5X4X*X$X@XQ.F.V.].G.c.b.l.i.M.oX$XJ.C.n.h.i.u.i.r.7.r.8.q.p.x.Y.}.[.{.H.8.>.t.9.;.8.",
"M.u.r.e.4.5.q.t.9.*.6.e.f.S.A.Z.T.+XqXaXtX6X=XoX1X'.!.^.OXOX3X~.oXOX|.{.%X1X%X).K.J.L.T.W.W.W.W.!.L.I.^.^.~.).).6X0X#X/.[.{.~.^.",
"3X[.;X4XuXxX,X.X$X.X8XyX8X4X=X:XiXpXtX6X3XwXgXvXtX5X7X7XgXxXFX<XW.).).#XwX9X2XtXdXiXiXpXwX4X7XyXMXkXxXAXBXfXaXxXcXyX1X<X%XT.P.OX",
"D.9.M.I.*XaXW.z.b.D.;X2X^.M.k.D.).'.XX,XqX0X=X[.`.oX*X}.*X5XqXB.3.t.8.r.B.v.z.W.2X*XoX].U.A.L.`.4X5X6X9X8X,X,XqX:X(.U.^.Q.Z.L.%X",
").j.F.K.|.0X(.I.h.N.@X&XK.g.s.S.&X[.R.Y.^.'.].`.].^.`. XwXpXwXv.a.N.h.t.x.l.h.J.|.`./.E.H.A.U.{.>XuXrX1X2X,X=X>X|.OX}.W.~.@X+XW.",
"^.i.f.N.^.@XH.x.V.m.E.Y.x.p.t.k.Q.!.~.E.G.n.x.b.n.t.k.W.>X*X-XS.9.z.g.r.g.l.g.x.].}.}.]./.^.).].,XzXjX8XwX9X=X&X@X@X*X%X$X-X'.x.",
"%XS.B.].1X:X^.B.C.m.U.F.k.h.p.s.9.w.u.i.0.2.5.r.y.8.a.N./.'.#XV.f.l.j.d.f.g.a.t.y.d.d.y.u.d.a.w.@XwX4X%X<X&X'..X!.C.Y.#X$X|.'.W.",
"g.,.%.t.q.$.%.#.:.9.A.B.p.a.u.a.u.9.6.y.z.Z.T.`.).^.I.V.oXdXgXv.N.j.l.N.V.F.L.H.k.m.m.c.S.(.].W.|.%X).Y.).P.N.E.`.T.~.(.W.}.;X+X",
"=X*X^.F.I.U.Q.#X'.=XuXfX9X:X4XpXwX+X'.-X5X|.W.{.=X5X5X*X$X:X;X+X{.$X6X9XlXmX6X>X7X9X6X2X5XrXpXiXdXrX5X,X>X,X4X8XmXVX$X$X+X*X$X'.",
" X].R.D.M.z.B.!.[.}.[.E.T..X*X}.3X1X9XqX{.c.j.S./.Y.N.f.g.c.z.p.V.v.k.N.>XdX[.D.F.P.Y.T.E.!.T.J.!.Y.H.A.C.C.A.D.,X-XS.G.z.a.i.a.",
"%XK.k.d.r.r.b.I.I.g.b.^.'.'. X{.(.'.2X7X!.b.V.G.}.!.S.b.b.Z.K.Y.J.P.F.Y.fXSXOXJ.D.J.I.Y.R.Y.F.m.m.M.m.M.B.Z.D.G.%XQ.t.j.t.w.r.j.",
"-Xj.>.9.w.t.h.k.m.7.x.{.Y.a.r.p.s.q.B.Q.F.D.H.z.U.G.F.E.'.'.~.R.b.C.v.V.0XcX[.G./.!.R.T.R.R.Y.P.m.V.C.B.N.B.N.m.-XA.=.6.9.z.v.m.",
"{.d.r.S.J.M.j.r.p.f.V.Z.a.q.9.,.h.p.J.].Y.J.D.i.x.s.h.J.'.!.v.7.m.d.6.t.+XuX).A.N.c.h.d.d.g.z.n.m.F.Y.E.^.{..X.X>XH.8.8.2.x.j.i.",
"a.1.q.V.C.s.e.t.<.q.p.d.k.c.v.b.c.G.*X7X[.K.H.A.F.G.H.F.A.Z.A.S.F.n.V.G._.'.z.w.4.1.<.<.,.1.0.s.b.H.!._.XX<X0XwXSXtX4X,X(.&XOX X",
"K.K.T.}.|.L.V.I.U.[.^.R._.W.U.}.|.%XwXjXyX,X>X8XwXfXgX8X>X5XdXbXdXtXFXIXlX6X|.).L.L.P.I.L.T.}.,X X=X>X%X$X>X3X<X4X).}.#XL.'.)..X",
"|.+X@X,X3XW.d.s.x.&X^.3.5.g.l.C.|.I.M.P.|.].W.^.]. XoX&X8XtX%XL.L.u.V.T.V.n.x.j.f.d.s.p.u.j.U.+Xb.F.L.S.S.Y.^.~.].u.g.H.l.K.J.`."
};
