/* XPM */
static char *b40899faf2fb47669987b278dd2778dd8PQdBi2OUdD0rFzC[] = {
/* columns rows colors chars-per-pixel */
"64 64 169 2 ",
"   c #593E29",
".  c #5B412B",
"X  c #5A4E2B",
"o  c #5C542D",
"O  c #5E582F",
"+  c #5E4738",
"@  c #5D4938",
"#  c #5E5630",
"$  c #5F5830",
"%  c #60432D",
"&  c #60522E",
"*  c #664730",
"=  c #674831",
"-  c #6C4C33",
";  c #624A38",
":  c #694E3B",
">  c #714F36",
",  c #615631",
"<  c #6D5034",
"1  c #655A35",
"2  c #6A5B36",
"3  c #635A3B",
"4  c #685D39",
"5  c #735037",
"6  c #76533A",
"7  c #79553A",
"8  c #7E5A3D",
"9  c #5B632D",
"0  c #59752C",
"q  c #5E6630",
"w  c #5E7931",
"e  c #606732",
"r  c #636934",
"t  c #676D38",
"y  c #6A6E3B",
"u  c #685E40",
"i  c #755742",
"p  c #765944",
"a  c #7A5B44",
"s  c #7C5F4A",
"d  c #665E53",
"f  c #6C5F55",
"g  c #7C604B",
"h  c #6B6056",
"j  c #67625D",
"k  c #68625D",
"l  c #74665A",
"z  c #6F6761",
"x  c #6C6B6B",
"c  c #756B65",
"v  c #815B3E",
"b  c #855E41",
"n  c #876041",
"m  c #8C6444",
"M  c #81624A",
"N  c #8A674B",
"B  c #8E684A",
"V  c #906746",
"C  c #916847",
"Z  c #966C4A",
"A  c #9A6E4C",
"S  c #9E714E",
"D  c #8D6C51",
"F  c #916E51",
"G  c #927156",
"H  c #9A7455",
"J  c #A0724E",
"K  c #A47551",
"L  c #A67855",
"P  c #AA7A54",
"I  c #B07F57",
"U  c #B17F58",
"Y  c #827469",
"T  c #897A6D",
"R  c #847C76",
"E  c #57832C",
"W  c #58842C",
"Q  c #509026",
"!  c #56952C",
"~  c #59972F",
"^  c #57992E",
"/  c #59992F",
"(  c #5E8A32",
")  c #5E9E34",
"_  c #618D35",
"`  c #66833B",
"'  c #6C873E",
"]  c #619236",
"[  c #609F36",
"{  c #66933A",
"}  c #6A953E",
"|  c #639E38",
" . c #6A993E",
".. c #61A137",
"X. c #65A53B",
"o. c #69A63E",
"O. c #69A93F",
"+. c #7A8C4C",
"@. c #6C9640",
"#. c #6C9A41",
"$. c #759746",
"%. c #729D46",
"&. c #79984A",
"*. c #6CA640",
"=. c #6CAB42",
"-. c #71AD46",
";. c #76A34B",
":. c #7FA44F",
">. c #75AE4A",
",. c #7BAD4D",
"<. c #6FB045",
"1. c #70B046",
"2. c #75B44A",
"3. c #7BB44E",
"4. c #78B84E",
"5. c #7DB450",
"6. c #7ABA50",
"7. c #7CB851",
"8. c #7CBC52",
"9. c #7EBE54",
"0. c #7FBC54",
"q. c #7DBD53",
"w. c #7FC055",
"e. c #81924F",
"r. c #829655",
"t. c #819E51",
"y. c #B5825A",
"u. c #B9855C",
"i. c #83A253",
"p. c #84A955",
"a. c #89A658",
"s. c #8CAB5C",
"d. c #81B051",
"f. c #82B052",
"g. c #83B253",
"h. c #81B052",
"j. c #83B655",
"k. c #85B656",
"l. c #80B653",
"z. c #85BB57",
"x. c #81BA55",
"c. c #87B758",
"v. c #85B758",
"b. c #88B758",
"n. c #87BA59",
"m. c #83BF58",
"M. c #89BA59",
"N. c #8ABD5B",
"B. c #8BBE5D",
"V. c #8EBE5E",
"C. c #8CBB5C",
"Z. c #8A8179",
"A. c #90BF60",
"S. c #80C056",
"D. c #85C05A",
"F. c #83C159",
"G. c #8EC15F",
"H. c #8DC05F",
"J. c #8FC160",
"K. c #8FC160",
"L. c #90C060",
"P. c #92C162",
"I. c #92C262",
"U. c #93C263",
"Y. c #97C867",
"T. c #97C568",
"R. c #9BC66B",
"E. c #9BCA6B",
"W. c #878686",
/* pixels */
"2.2.2.2.2.2.4.2.2.2.2.=.O.X.X.O.X.X.X.O.=.1.1.O.X...) ..O.=.=.1.8.w.w.8.4.2.4.2.=.=.O.=.O.X.X.O.O.O.O.O.X.....) ! Q Q ! X.=.<.=.",
"2.2.2.2.4.2.2.4.2.2.2.-.=.X.X.X.o.X.X.O.=.1.1.O.X.) ....O.=.=.1.4.8.8.8.4.2.2.2.=.O.O.O.X.O.O.O.O.O.O.X.......) ! Q Q ! O.=.<.=.",
"2.2.2.2.2.4.2.2.2.2.2.-.O.o.O.X.o.o.o.O.=.-.-.O.........O.=.=.1.4.8.8.8.4.4.2.2.=.=.=.O.O.O.O.X.O.O.O.O.X.....) Q Q Q / O.=.=.=.",
"2.1.2.2.2.2.2.2.2.2.2.2.=.=.o.=.o.-.O.o. . .}  .......X.O.O.O.=.2.4.4.4.4.7.7.4.2.-.-.-.=.O.O.O.O.O.O.X.X...X.../ ! ! / O.=.=.<.",
"2.2.2.2.-.=.=.2.j.k.z.g.,.,.,.,.3.d.,.%.r # O e { o.X.X.X.X.X.X.X.X.X.-.z.V.H.V.M.M.n.x.2.=.1.=.X...X.X.O.O.O.O.X.....X.O.O.=.O.",
"2.2.2.1.<.=.=.2.g.b.M.b.g.f.f.f.f.g.p.&.1     O ] o.O.o.X...X.....[ ..o.M.P.P.P.P.A.V.N.4.2.2.-.X.X...X.O.=.=.=.O.O.X.o.O.<.O.<.",
"2.2.2.2.=.=.=.>.k.M.M.b.f.3.f.f.f.f.p.&.,     o ] o.O.o.........[ ) ..o.N.P.P.U.A.A.A.B.5.2.2.=.X.......O.=.=.O.O.X.O.O.=.O.O.O.",
"4.6.4.3.#. .} #.k.V.V.M.d.,.,.,.,.3.3.$.,     o { o.O.o.] _ _ ] ....X.=.z.H.J.J.J.A.A.V.7.7.4.>.{ _ ( ] ..O.O.O.X.X.X.X.{ { } } ",
"M.M.z.i.t # , y s.T.E.H.>.O.o.=.=.-.=.} o     O } -.=. .q o o q  .-.1.2.0.m.m.D.J.P.U.J.A.P.J.p.r X o 9 ~ / / ) ..X...] q o o O ",
"V.V.C.t.1     r s.E.E.P.-.X.X.X.X.=.*.{ o     #  .1.1. .O . . O %.1.2.2.9.9.w.F.J.U.P.U.Y.Y.T.s.e . . X W ^ ^ ^ ) ....( o .     ",
"C.C.C.t.1     3 s.R.E.P.-.X...X.o.O.o.{ o     # } -.-.} o     o #.2.2.2.8.0.9.x.J.A.P.P.U.U.A.a.2     X W ! ! ^ ) ..) ( o       ",
"t.i.t.+.3 + @ u r.s.s.a.} _ _ { X.=.=.{ #     o `  .} ` o   . O  .-.1.-.;.;.;.,.v.N.B.b.s.s.a.e.2 % % o 0 w E E ( ( ( w & % % . ",
"1 1 1 3 d k k h 4 4 2 1 o o o q #.=.-.@.&     . o & O o .   . o _ ....{ r , $ t %.2.>.%.y 3 2 2 5 5 > < & X X X X o o & - 5 5 5 ",
"      @ k x x k @ .         . $ @.2.1.#.O                     X _ | [ ( o . . O } =.=.@.O .   % 5 6 6 5 . . . . .     % 5 6 6 6 ",
"      ; k x x z @           . # @.-.-. ., .                   o ( ) [ _ o     o } =.=.} O     + 5 7 7 < %             % 5 6 7 7 ",
"* * * : f z z h : = * = - - > 2 ' @. .' 1 = * % % % % % % % % & w ( W w X     X w @.@.` $ @ + ; 5 7 7 6 - = % % .     % 5 7 7 7 ",
"b m n n a p p s n n n B S J J S r & & 2 v n n v 6 5 > 5 5 > > < & o o X .     . o # # 3 d k k h 7 8 6 7 v n n v %     % > 7 7 7 ",
"Z Z Z V 8 7 7 8 V Z Z S y.u.u.J >     = m Z Z V v 7 7 6 7 7 6 5 %                   . @ k x x z p 6 7 v B Z Z n =     % > 7 7 7 ",
"Z Z Z V 8 7 7 8 V Z Z S I u.u.J >     * m Z Z C v 7 6 7 6 7 7 > %                     + k x x l p 7 7 v V A Z m *     % 5 v 7 7 ",
"V V B n 7 5 5 7 m Z Z S P y.I S > % % - n Z Z C 7 > > > 5 > > -         . . . % *   . @ d k k f p 7 7 8 n V B b - % % = v v m v ",
"8 v v 7 = % % - m Z A A A S A Z 7 5 < 8 C Z C m - % % % % % % .       . - > > > - 5 5 - ; + + ; 5 7 7 7 8 v v 7 6 5 6 v J P P P ",
"7 7 7 5 %     * n A Z Z A A Z V v 7 7 8 C Z Z m *                     % > 7 7 7 7 6 6 5 %     % 5 7 7 7 7 7 7 7 7 7 7 v P y.u.u.",
"7 7 7 5 %     * m C Z C Z Z Z B v 7 8 8 C C C m % .                   % 5 7 7 7 7 7 7 5 %   . % 5 7 7 7 7 7 7 7 7 7 7 n P y.u.u.",
"n n b v = % % = v V V V V B C N M g g g N C C n - % % % - - > > > - > > 7 7 7 7 b b b b 5 > - - 5 7 7 7 8 8 8 8 7 7 v v K I y.I ",
"P P P K v 5 > 5 8 v 8 v b 7 b M Y R R Y g v v 7 6 5 5 8 Z J K K K K K A v 7 7 b J P P P K K K S v 7 7 v m V V m v 6 7 v Z J J S ",
"u.u.y.P b 7 7 7 7 7 7 7 7 7 5 g R W.W.Z.g 8 7 7 7 7 7 b P u.u.u.u.u.y.P b 7 7 b P u.u.u.u.u.u.P n 7 7 7 V Z Z m v 7 7 v V Z Z Z ",
"u.u.u.P b 7 7 7 7 7 7 7 7 7 7 g R W.W.R g 7 6 6 7 7 7 n P u.u.u.u.u.u.P b 7 7 b P u.u.u.u.u.u.P n 7 7 v V Z A V v 7 6 v V Z Z Z ",
"P P P S b 7 7 v b b b b b b m N T Z.Z.T M v 7 8 7 7 8 v J P I P I U U K v > > b J P y.y.y.y.P K n 7 8 7 m V V m v v v v V Z Z Z ",
"b n m b 7 7 7 b J P P P P P P L H G G G Z C C m 7 8 7 8 v b v m A S J C > % % - V S S S S S S Z v 8 7 7 v v v v m V V V Z Z Z Z ",
"7 7 7 7 7 7 7 n P u.u.u.u.u.u.U S Z Z Z Z Z Z m v 7 7 7 7 7 8 v C Z A b *     * n Z A Z Z A Z V v 7 7 7 7 7 7 v V Z Z Z Z Z Z Z ",
"7 7 7 7 7 7 7 b P u.u.u.u.u.u.I S Z C Z Z Z Z C 7 7 7 7 7 7 7 8 m Z A b =     * n Z Z Z Z Z C V 7 7 7 7 7 7 7 v V Z Z Z Z Z Z Z ",
"b 8 8 7 7 7 7 b J P P P y.y.I P Z C C V Z Z Z C v 8 7 6 5 5 5 7 m C C b > * * > m Z Z Z V V V m v 7 7 7 7 7 7 7 b n m n V V V V ",
"V V V n 8 7 7 8 v n n V A J S Z n v 8 n V Z C V v 7 7 5 % % % * 7 7 v b b b m m V A Z V v v v v 7 7 7 7 7 7 7 5 - * * > 7 v v v ",
"Z Z Z V v 7 7 7 7 7 7 v V C A V 8 7 7 v V Z A V v 7 6 5 %     % 5 7 7 v m C Z A Z Z Z V v v 7 7 7 6 7 7 7 7 7 > %     % > 7 7 6 ",
"Z Z Z V v 7 7 7 7 7 7 7 B C Z V 8 7 7 v V Z A V v 7 7 > %     % 5 7 7 v V Z A C Z Z A V v 7 7 7 7 v 7 7 v 7 7 > %     % > 6 7 7 ",
"V V V m v v v 7 7 5 5 7 m V V m 8 7 7 7 n n n n 5 > 5 5 % % % * 5 7 7 v b V C C V V V v 7 7 7 7 v v V v b b b v * % % * 7 v v v ",
"v v v v m V V n - % % = 7 7 v v 7 7 7 5 - * % % % % % % > > > 5 6 7 7 7 b v 7 b v v v v 7 7 v v J I I P P P P J v 5 5 7 m V V V ",
"7 7 7 v V Z Z n % .   % 5 7 7 7 7 7 7 5 %   .         % > 6 6 7 7 7 7 7 7 7 7 7 7 7 6 7 7 7 7 m P y.u.u.u.u.U P v 7 7 7 V C Z Z ",
"7 7 7 v V Z Z n *     % 5 7 7 7 7 7 7 5 %             % > 7 7 7 7 6 7 7 7 7 6 7 v 7 7 7 7 7 7 v P u.u.u.u.u.u.P m 7 7 v V Z Z Z ",
"7 7 7 v V Z Z m - % % = v b m n n n n 8 = % % % - > > 5 7 v v v 6 > 5 7 b b b b v V v v 6 > > v K I I I U I U P N g s M B V V V ",
"7 7 7 8 C Z Z V 7 > 5 7 J P P P P P P S 8 5 5 7 A J K J V V V b - % % > A P P P P I P A > % % - V S S S S S H H T R R Y M 8 8 8 ",
"7 7 7 v V Z Z V v 7 7 b P u.u.u.u.u.u.P b 6 7 n P u.u.I J A Z b *     > J u.u.u.u.u.u.J >     * n Z A Z Z A Z G Z.W.W.R g 8 7 7 ",
"7 7 7 v V Z Z V v 7 7 m P u.u.u.u.u.y.P m 7 7 n P u.u.I J Z Z b *     - K u.u.u.u.u.u.K >     * n Z Z Z Z Z Z G Z.W.W.R s 7 7 7 ",
"8 8 8 v m V V m v 7 7 v K y.y.P y.y.U P V n n V J P I P A Z Z m : + + 6 K I I I U U I J > % % * v n n m Z Z Z G T R R Y p 5 > 5 ",
"V V V V v v 8 8 7 7 7 v C S S S S S S K P P P K V m v b C Z Z B l f z l F A A H J S S C 7 6 > > - * = 5 B Z Z C M g s a = % . * ",
"Z Z C V 8 7 7 7 7 7 7 v V Z A Z A Z Z S U u.u.P v 7 v v C Z Z D x x x c D A A Z Z A Z V v 7 6 > %     * n Z Z V 8 7 7 5 %       ",
"Z Z Z V 8 7 7 7 7 7 7 v V Z Z Z Z Z Z S U u.u.P m 7 7 v B Z Z D c x x c D Z Z Z Z Z Z V v 7 7 > .     * n Z Z V v 7 7 5 %       ",
"V V V n 7 6 < 6 7 v v v m B B V Z Z A A P I I P V m v v B V B N l z z l N B m C V V B n v 6 6 6 % % % - b V V V n n b b 5 - - - ",
"8 v 8 7 = % % = n V V m v v v b V Z Z A A J J J P P P J n v v 8 p i a a v v v v v v v v 7 7 7 7 7 > > 5 v v v v P P I P J K K K ",
"7 7 7 5 %     * n Z Z V v 7 7 v m Z Z Z Z A Z S I u.u.P n 7 7 7 7 7 7 7 6 7 7 7 6 7 7 7 7 7 7 7 7 7 7 7 7 6 6 v P u.u.u.u.u.U u.",
"7 7 7 < % . . = n Z Z V 8 7 7 v B Z Z Z Z C Z S I u.u.P n 7 7 7 7 7 7 7 6 7 7 7 7 7 v 7 7 6 6 7 7 7 7 7 v 7 v v P u.u.u.u.u.u.u.",
"7 7 7 7 = = = < n V V m 8 7 7 8 m B B C B B V A P y.I K m v v 7 7 7 7 7 5 > > 5 v v v v 6 > > 6 7 7 7 7 v m v V P I I I U U U U ",
"7 7 7 7 b n n n v v v 7 7 7 7 7 a a a a v v v v A S S A V V m m 8 7 7 > * % % > J P P A > % % % 5 7 7 v J I P P J S S J K J J A ",
"7 7 7 v V Z Z V v 7 8 7 7 7 7 7 p p i i 7 7 7 v V C A Z Z A A V v 7 7 > %     > J u.u.K >     % > 7 7 n P u.u.I S A Z A A A Z Z ",
"7 7 7 v V Z Z V 7 7 6 7 7 8 7 7 i p p i 7 7 7 v V A Z C C A C V v 7 7 > %     - J u.u.J >     % > 7 7 m P y.u.y.S Z Z Z Z Z Z Z ",
"8 8 v v V V V n 7 5 5 6 v b m v a p i i 5 5 > 7 n V V B m n m n m b b v 5 - > v J P P J 6 * * - 5 7 7 v J P P K A Z Z Z Z A Z Z ",
"V V V m b 7 8 7 = % % > A P P J n 7 7 5 = . % % 7 8 7 8 - % * 6 A P P P P K J A V v b b b V m v 7 7 7 8 b b b b C Z Z Z Z Z Z Z ",
"Z Z Z m v 8 7 5 %     - J u.u.P n 7 6 5 *     % 5 7 7 5 %   . > J u.u.u.u.u.u.P v v v v V Z V V v 7 7 7 7 7 7 v C Z Z Z Z Z Z Z ",
"Z Z Z V 8 8 6 5 %     5 J u.u.P n 7 7 5 .     + 5 8 7 5 %   . - P y.u.u.u.u.u.P v v 6 v V A Z V v 7 7 7 7 7 7 v C Z Z Z Z Z Z Z ",
"Z Z Z C 8 6 7 6 > > > 7 J I I P m v 7 7 = % % = p g g a = % % 5 J I I U U I I K v 7 6 v b V V V v b 7 b 7 b v b m V V B n m n b ",
"Z Z Z V 8 8 6 v S S K K J S S S V V V m 7 5 5 p c R R Y p 5 5 8 V S S J J S S Z v 7 7 7 v v v v m B V V V V V m b v v 7 - * * * ",
"Z Z Z V 8 7 8 b K u.u.P J S Z Z Z Z Z V 8 7 6 g R W.W.R g 7 7 7 V Z A A A A Z V v 7 7 7 6 7 7 v B Z Z C Z Z Z m 8 7 7 > %       ",
"A Z Z V 8 7 8 m P u.u.y.S Z Z Z Z Z Z V v 7 7 g Z.W.W.R g 7 7 v V Z A C C A Z B v 6 7 7 7 7 7 v V Z Z Z Z Z Z V 8 7 7 > %       ",
"Z Z Z V 8 6 6 n P u.u.y.S Z Z Z Z Z Z V 8 7 7 g R W.W.R g 7 7 8 V Z C A A Z C V v 7 7 7 7 6 7 v V Z Z Z Z Z Z V v 7 7 > %       "
};
