/* XPM */
static char *_fbd7891490b46c9b71aebc25f3b5dcdVp9hrTPf3ZJY8az5[] = {
/* columns rows colors chars-per-pixel */
"64 64 26 1 ",
"  c #927542",
". c #967A44",
"X c #9A7B45",
"o c #9D7D48",
"O c #A27F4B",
"+ c #9E8149",
"@ c #A48347",
"# c #A3814B",
"$ c #A78A4F",
"% c #A98A4F",
"& c #A78A50",
"* c #AD8D53",
"= c #AD8D58",
"- c #B08E55",
"; c #B08D58",
": c #AF9053",
"> c #B49357",
", c #B89557",
"< c #B49458",
"1 c #B89558",
"2 c #BE9C5F",
"3 c #BF9D61",
"4 c #BFA164",
"5 c #C09C5F",
"6 c #C19D62",
"7 c #C2A165",
/* pixels */
"    O@@%5555@5@56666**--56666666666611116666666631<1--*-1,,1;--;",
"    @O@O55@555-56666-%%-5566666667661111666666663;1<;;*-,1,1----",
"    @@OOO-5--55-5666%:*-6666666566661111666666661<11-*--11,,-;--",
" X  O@O%55-5,--56666>%%>6666362265661,,1666666661111--*;<1,1-*-*",
"   oOO@@%:-%,-,,5666>%*-66633322111,52256666777711,>--*----;OOO#",
"    OOO@:-%@,5-56666%***666332221,,,22223663777711,,--------OOOO",
"    OOOO%,%5,,,56666>%--666622221,,,2224667477771111---;----OO&O",
"    OOO%%%-@,,,-5665****6662224211,,222233377777111<*-*-;-;;OOOO",
" OXX@OO@%,-%@@O%2222**--5755,,2,11,12366<<<<77771111#OO&**=&o#+#",
"OXXOO@@@%%-%@@OO2222-**>5552,,><11112666<<<<7777111<OOO#====#o#o",
"XXXX@@@O:%:-#OOO2222----2744,,<211116666<:<<777711<;&OO#*===+++#",
"OXOOO@OO:::%##O#2222-;*-22441,<111116666<<<<777711<3OOO&====###+",
" XXXXXOO****#OOO%>*%----2432111111114366<<<<44776222#O##====***:",
"XOOXXX X****&OOO**%>----2636111111113666<<<<47776322OOO#=====---",
"XO XXXXX%*-*&O##***---*-3334111111,13666<<<<47772222OOo#====;;--",
"XX OXXXX**;;O#O#***---->22321,1,,11166661<<<77773222&O&#====****",
"OOO@XXXX-%--@@O%---:5556<<<<,,1112136666<<<<367766666336====    ",
"@@@@X XX%@:%OOOO*-%-5566<<<:,,1,32333666<<<<363466666666====    ",
"@@@OXXXX%5-%OOO@%*%-3366<<<>,1,132333366<<<<364766666666;===    ",
"O@OXXXXX:%:%@@O@----2666<<>>,11<22336676<<<<667766663363;&==    ",
"   XOOO@%5,-:::%22227777<<<><1<1222377771<1177776663;=;;===&    ",
"    OOOO5%,,-:%:22227777<<<>11,122237777111147776666========    ",
"    OOOO55%5:%::22527777<<<<111,22337777111144446666======:*    ",
"    OO@O%,55::%:22557777<<<<1,,122237777111144446666==*===%$    ",
"    XXXX,,,,-%:-26667777<<<<22223363777711111111<<<<&&&&====+++#",
"    X  X,,,,::-:56667777<<<<1221336677771111,1,1<<<<&&%%::=&+&#O",
"    XX X,,,,-%-%66667777<<<<22223666777711,,,111<<<<&&%&====&OOO",
"    X XO;,,,:-%-66667777<<<<2222666677771,,,,,,1<<<;%&%&====OOOO",
"    O  X-O-%----66666666<<<<2224666676765222:::%<<<;%&%&====o.o.",
"    XXXX--%-----66666666<<<<2222666666662252:%::<<<<&&&&====o..X",
"     X X-O5-----36666666<<<<2242666666662222::**<<<<&&&&====X.XX",
"X   XXXXO5O%----66666666<<:<2222666667662222*%**<<<=*%&&&==*XXXX",
"XXXo+++#&***:*:<24423222<<<<7777211177776666;***<<<,3333=&&&OOOO",
"oooO####**&&==::25272252<<1177771<1177776666-***><<<3333&&$&OOO#",
"oXXXO#@#%&&**-::25622252<<<<6777111177776663>%>%<<<<6363&&&&O&#O",
"XXXXO#@@****;-<:24562265<<<<7777111177776666***-<<><6666&&%$OO#O",
"    %:%%>><::$$%22552111<<<<7777111>1<<<66662222<><<4466@@O@XXXX",
"    **:*>><>$$$$22421115<<<<7777111,><<<66662222<<<<4263@OOOXX.X",
"    **%:<:<:$$$$22221212<<<<67771111<<<<36634222<>:<4453OOO@X..X",
"    *:%:<<<<$$$$22221121<<<<7776111<<<>166632222<<<<2253&OO@XXX.",
"    o#+#<<<<&&&&:<<-1111,1115563----,-,,56672222<<<;1111OOO#OX.X",
"    o+##:<<:&&&&:=-,111111,15663-%:%,,,,56342242;;><111;OO##XX.X",
"    O##$:<<<&$$&<<<;111111115663:%-%,,,5334422221;;11111&OOOXXXX",
"    ##O@<<<<$$$$;:=-11111<115663--::,,,567342222111;1111OOOOXX.X",
"+..+<<1<<<<<:<<<<--;111111115663-%:::%%:4743::%>111<*=;===&=@X@+",
"XX.X<<<<<::<<<><;;1-111>11116666-:%-::-:3343**>%111<========X+++",
"XXXX<<1<<<<<<<<<>-;,,11111115665-%::%:::4434:%:>1111*======&+@++",
"XXXO;<<1<<<=<<<<1;--11,111<16655:--%:%%:2343**:%<1<1=======*+X+@",
"XXXX:::%@@#$>:<<,115,,1166662224,,,,%::::,,,:%**;===&OOOoXooo+O+",
"XXXX%:%:++##>><<5151,,1166662525,,,::%-%,,:-%>%*===*OoOOXX..####",
"XX@X::::+###<<<<5151,1,166662222,,,,:%%-,-,,::***====OOOXXXXOOO#",
"XXXX%%$:$$##<<<<1111,11156662552,,,5::-,-,:,:-*%====OOOOo.XX###O",
".   .@@+@O@$:<<<1,1,111,25551111,,,,7777-:--,,,,OOOOOOOOX..X####",
"    @@@+@@@#:<<<1;111,1122251111,,,,7777-%:%>,1,OOOOO&OOX.+X###+",
"    @@@@O@##<<<<1,11,111225211111,,,7777:%%:,,1,OO&OOOOOXX.X####",
"    +@@@@@#+<<<<1,1,11,12222111111,17775:::%,11,OOOOOO=OooXX##$#",
"    XXXX-----;1;<11111111111666611116666-**-11,,OOO&=======&.XXX",
"     XXX---;-<;<111,1,,111;1666611116666--*%,,,,#OO#========XXXX",
"    XOXO;---;;1;1,1111111111666611116666-%*;<,,:#OOO========+XXX",
"    XXXX-;--1<<<11,1,<,11111666611116666--*%1,,,&#OO=======&.XX.",
"    O##@2535666311111111666666661111666366331,1111113333====..X.",
"    #@@$2666666611<1111166666666111156666666111111116666====+..o",
"    O@@@36666666111111116666666611115566666611<111116633====+XXX",
"    @@O%166666631111111166666666111155666666111111116333====..o."
};
